<?xml version="1.0" encoding="UTF-8"?>
<svg id="Layer_1" data-name="Layer 1" xmlns="http://www.w3.org/2000/svg" viewBox="0 0 16 16">
  <defs>
    <style>
      .cls-1 {
        fill: #0c1a16;
      }

      .cls-2 {
        fill: #a0bdaa;
      }

      .cls-3 {
        fill: #e8e5d8;
      }
    </style>
  </defs>
  <rect class="cls-1" width="16" height="16"/>
  <path class="cls-3" d="M7.42,15.02c-.97,0-1.84-.16-2.63-.49-.78-.33-1.4-.82-1.85-1.46-.45-.65-.7-1.44-.74-2.38h3.1c.01.37.11.7.29.99.18.28.43.51.74.67.31.16.67.24,1.09.24.35,0,.66-.05.92-.16.26-.11.47-.27.63-.48.15-.21.23-.48.23-.8s-.09-.62-.27-.86c-.18-.24-.43-.45-.74-.62-.31-.17-.67-.34-1.08-.48-.41-.15-.84-.29-1.31-.44-1.07-.35-1.9-.82-2.47-1.41-.57-.59-.86-1.39-.86-2.38,0-.83.2-1.53.61-2.12.41-.59.97-1.04,1.68-1.35.71-.31,1.52-.47,2.42-.47s1.75.16,2.45.47c.7.32,1.27.78,1.69,1.38.42.6.64,1.31.67,2.14h-3.12c-.01-.28-.09-.54-.24-.78-.15-.23-.35-.42-.6-.56-.25-.14-.55-.21-.88-.21-.3-.01-.57.03-.81.13-.25.1-.44.25-.58.45-.14.2-.21.45-.21.75s.07.53.22.75c.15.21.36.39.62.54.26.15.57.29.93.42.36.13.75.26,1.17.39.68.23,1.31.51,1.89.82.57.32,1.04.73,1.4,1.24.36.51.53,1.19.53,2.02,0,.74-.19,1.41-.57,2.03-.38.62-.93,1.12-1.65,1.49-.72.37-1.61.56-2.66.56Z"/>
  <path class="cls-2" d="M8.91,15.01c-.97,0-1.84-.16-2.63-.49-.78-.33-1.4-.82-1.85-1.46-.45-.65-.7-1.44-.74-2.38h3.1c.01.37.11.7.29.99.18.28.43.51.74.67.31.16.67.24,1.09.24.35,0,.66-.05.92-.16.26-.11.47-.27.63-.48.15-.21.23-.48.23-.8s-.09-.62-.27-.86c-.18-.24-.43-.45-.74-.62-.31-.17-.67-.34-1.08-.48-.41-.15-.84-.29-1.31-.44-1.07-.35-1.9-.82-2.47-1.41-.57-.59-.86-1.39-.86-2.38,0-.83.2-1.53.61-2.12.41-.59.97-1.04,1.68-1.35.71-.31,1.52-.47,2.42-.47s1.75.16,2.45.47c.7.32,1.27.78,1.69,1.38.42.6.64,1.31.67,2.14h-3.12c-.01-.28-.09-.54-.24-.78-.15-.23-.35-.42-.6-.56-.25-.14-.55-.21-.88-.21-.3-.01-.57.03-.81.13-.25.1-.44.25-.58.45-.14.2-.21.45-.21.75s.07.53.22.75c.15.21.36.39.62.54.26.15.57.29.93.42.36.13.75.26,1.17.39.68.23,1.31.51,1.89.82.57.32,1.04.73,1.4,1.24.36.51.53,1.19.53,2.02,0,.74-.19,1.41-.57,2.03-.38.62-.93,1.12-1.65,1.49-.72.37-1.61.56-2.66.56Z"/>
</svg>