<?xml version="1.0" encoding="UTF-8"?>
<svg id="Layer_1" data-name="Layer 1" xmlns="http://www.w3.org/2000/svg" viewBox="0 0 500 500">
  <defs>
    <style>
      .cls-1 {
        fill: #0c1a16;
      }

      .cls-2 {
        fill: #a0bdaa;
      }

      .cls-3 {
        fill: #e8e5d8;
      }
    </style>
  </defs>
  <rect class="cls-1" width="500" height="500"/>
  <path class="cls-3" d="M231.8,469.31c-30.28,0-57.63-5.15-82.05-15.44-24.43-10.3-43.7-25.53-57.83-45.72-14.14-20.18-21.8-45.01-23.01-74.48h96.88c.4,11.71,3.43,22.01,9.08,30.88,5.65,8.88,13.32,15.85,23.01,20.89,9.69,5.05,20.99,7.57,33.91,7.57,10.9,0,20.48-1.71,28.76-5.15,8.27-3.43,14.84-8.48,19.68-15.14,4.84-6.66,7.27-15.03,7.27-25.13s-2.83-19.47-8.48-26.95c-5.66-7.47-13.32-13.93-23.01-19.38-9.69-5.45-20.89-10.49-33.61-15.14-12.72-4.64-26.34-9.18-40.87-13.62-33.51-10.9-59.25-25.63-77.21-44.2-17.97-18.56-26.95-43.39-26.95-74.48,0-25.83,6.36-47.93,19.07-66.31,12.72-18.36,30.17-32.4,52.38-42.08,22.2-9.69,47.43-14.53,75.69-14.53s54.59,4.95,76.6,14.84c22,9.9,39.56,24.22,52.68,42.99,13.11,18.77,20.08,41.08,20.89,66.91h-97.49c-.41-8.87-2.93-16.95-7.57-24.22-4.65-7.27-10.9-13.11-18.77-17.56-7.87-4.44-17.06-6.66-27.55-6.66-9.29-.4-17.77.91-25.43,3.94-7.67,3.03-13.73,7.67-18.17,13.93-4.45,6.26-6.66,14.03-6.66,23.31s2.32,16.65,6.96,23.31c4.64,6.66,11.1,12.32,19.38,16.95,8.27,4.65,17.96,8.99,29.06,13.02,11.1,4.04,23.31,8.08,36.63,12.11,21.39,7.27,41.07,15.85,59.04,25.74,17.96,9.9,32.49,22.81,43.6,38.75,11.1,15.95,16.65,37.04,16.65,63.28,0,23.01-5.96,44.2-17.86,63.58-11.91,19.38-29.06,34.92-51.47,46.63-22.4,11.7-50.16,17.56-83.26,17.56Z"/>
  <path class="cls-2" d="M278.5,469.09c-30.28,0-57.63-5.15-82.05-15.44-24.43-10.3-43.7-25.53-57.83-45.72-14.14-20.18-21.8-45.01-23.01-74.48h96.88c.4,11.71,3.43,22.01,9.08,30.88,5.65,8.88,13.32,15.85,23.01,20.89,9.69,5.05,20.99,7.57,33.91,7.57,10.9,0,20.48-1.71,28.76-5.15,8.27-3.43,14.84-8.48,19.68-15.14,4.84-6.66,7.27-15.03,7.27-25.13s-2.83-19.47-8.48-26.95c-5.66-7.47-13.32-13.93-23.01-19.38-9.69-5.45-20.89-10.49-33.61-15.14-12.72-4.64-26.34-9.18-40.87-13.62-33.51-10.9-59.25-25.63-77.21-44.2-17.97-18.56-26.95-43.39-26.95-74.48,0-25.83,6.36-47.93,19.07-66.31,12.72-18.36,30.17-32.4,52.38-42.08,22.2-9.69,47.43-14.53,75.69-14.53s54.59,4.95,76.6,14.84c22,9.9,39.56,24.22,52.68,42.99,13.11,18.77,20.08,41.08,20.89,66.91h-97.49c-.41-8.87-2.93-16.95-7.57-24.22-4.65-7.27-10.9-13.11-18.77-17.56-7.87-4.44-17.06-6.66-27.55-6.66-9.29-.4-17.77.91-25.43,3.94-7.67,3.03-13.73,7.67-18.17,13.93-4.45,6.26-6.66,14.03-6.66,23.31s2.32,16.65,6.96,23.31c4.64,6.66,11.1,12.32,19.38,16.95,8.27,4.65,17.96,8.99,29.06,13.02,11.1,4.04,23.31,8.08,36.63,12.11,21.39,7.27,41.07,15.85,59.04,25.74,17.96,9.9,32.49,22.81,43.6,38.75,11.1,15.95,16.65,37.04,16.65,63.28,0,23.01-5.96,44.2-17.86,63.58-11.91,19.38-29.06,34.92-51.47,46.63-22.4,11.7-50.16,17.56-83.26,17.56Z"/>
</svg>